With: Rutger Hauer, Paulina Porizkova en Andrew Dolan

Gene Reardon (Hauer) is a twice-divorced police detective who lives with his daughter. When a well-heeled local man is kidnapped, the FBI is called in, which introduces Longsworth (played by Paulina Porizkova). Longsworth happens to have been Reardon's first wife. Reardon's police reputation stinks because he botched a high-profile kidnapping case many years ago, which resulted in a baby who was never found. When ransom demands are finally heard, Reardon must try to solve the case without repeating his mistakes.

General:	

Complete name                    : Partners in Crime\Partners in Crime.avi
Format                           : AVI
Format/Info                      : Audio Video Interleave
File size                        : 903 MiB
Duration                         : 1h 26mn
Overall bit rate                 : 1 459 Kbps

Video:

Format                           : MPEG-4 Visual
Format profile                   : Simple@L3
Format settings, BVOP            : No
Format settings, QPel            : No
Format settings, GMC             : No warppoints
Format settings, Matrix          : Default (H.263)
Codec ID                         : XVID
Codec ID/Hint                    : XviD
Duration                         : 1h 26mn
Bit rate                         : 1 000 Kbps
Width                            : 720 pixels
Height                           : 400 pixels
Display aspect ratio             : 16:9
Frame rate                       : 25.000 fps
Color space                      : YUV
Chroma subsampling               : 4:2:0
Bit depth                        : 8 bits
Scan type                        : Progressive
Bits/(Pixel*Frame)               : 0.139
Stream size                      : 619 MiB (69%)
Writing library                  : XviD 1.1.2 (UTC 2006-11-01)

Audio:

Format                           : AC-3
Format/Info                      : Audio Coding 3
Mode extension                   : CM (complete main)
Codec ID                         : 2000
Duration                         : 1h 26mn
Bit rate mode                    : Constant
Bit rate                         : 448 Kbps
Channel(s)                       : 6 channels
Channel positions                : Front: L C R, Side: L R, LFE
Sampling rate                    : 48.0 KHz
Stream size                      : 277 MiB (31%)
Alignment                        : Aligned on interleaves
Interleave, duration             : 32 ms (0.80 video frame)
Interleave, preload duration     : 64 ms